    <svg xmlns="http://www.w3.org/2000/svg" width="854" height="450" viewBox="0 0 854 450" role="img">
      <style>
        .stroke { stroke: var(--svg-stroke, currentColor); stroke-width: 1; }
        .label { fill: var(--svg-text, currentColor); font-family: "Roboto", "Arial", sans-serif; font-size: 24; }
        .title-label { fill: var(--svg-text, currentColor); font-family: "Roboto", "Arial", sans-serif; font-size: 30; font-weight: 700; }
        .value { fill: #e0e0e0; font-family: "Menlo", "Consolas", monospace; font-size: 22; }
        .label-value { fill: var(--svg-text, currentColor); font-family: "Menlo", "Consolas", monospace; font-size: 22; }
      </style>
      <!-- STACK: Point frame -->
      <rect x="55" y="35" width="220" height="175" fill="none" class="stroke"/>
      <text x="60" y="25" class="label">Point</text>
      <!-- Point: labels (left column) -->
      <text x="105" y="85" class="label">y</text>
      <text x="105" y="132" class="label">x</text>
      <text x="87"  y="179" class="label">this</text>
      <!-- Point: values (right blue column) -->
      <rect x="140" y="60" width="110" height="130" fill="#2563a8"/>
      <line x1="140" y1="103" x2="250" y2="103" stroke="#5c7fb1" stroke-width="2"/>
      <line x1="140" y1="146" x2="250" y2="146" stroke="#5c7fb1" stroke-width="2"/>
      <text x="195" y="90" class="value" text-anchor="middle">2.0</text>
      <text x="195" y="133" class="value" text-anchor="middle">1.0</text>
      <text x="195" y="176" class="value" text-anchor="middle">9048ab50</text>
      <!-- STACK: main frame -->
      <rect x="55" y="260" width="220" height="100" fill="none" class="stroke"/>
      <text x="60" y="250" class="label">main</text>
      <!-- main: p -> Ø -->
      <text x="105" y="305" class="label">p</text>
      <rect x="140" y="280" width="110" height="55" fill="#2563a8"/>
      <text x="195" y="310" class="value" text-anchor="middle" font-style="italic">ϕ</text>
      <!-- HEAP: object box -->
      <g>
        <!-- header -->
        <rect x="415" y="180" width="200" height="35" fill="#1b3e6b"/>
        <!-- body -->
        <rect x="415" y="215" width="200" height="80" fill="#2563a8"/>
        <text x="515" y="204" class="value" text-anchor="middle">Point</text>
        <text x="435" y="250" class="value">x: 0.0</text>
        <text x="435" y="278" class="value">y: 0.0</text>
        <text x="635" y="205" class="label-value">9048ab50</text>
      </g>
      <!-- red pointer arrow from 'this' to heap object -->
      <defs>
        <marker id="arrowHead" viewBox="0 0 10 10" refX="9" refY="5" markerWidth="8" markerHeight="8" orient="auto">
          <path d="M 0 0 L 10 5 L 0 10 z" fill="#ff0000"/>
        </marker>
      </defs>
      <line x1="250" y1="180" x2="413" y2="202"
            stroke="#ff0000" stroke-width="2" marker-end="url(#arrowHead)"/>
      <!-- bottom labels -->
      <text x="165" y="400" class="title-label" text-anchor="middle">Stack</text>
      <text x="560" y="400" class="title-label" text-anchor="middle">Heap</text>
      <line x1="340" y1="0" x2="340" y2="400" class="stroke"/>
    </svg>
